<svg width="131" height="22" viewBox="0 0 131 22" fill="none" xmlns="http://www.w3.org/2000/svg">
<path d="M7.23975 13.8281H4.43164V21H0.727051V1.80469H7.16064C8.22412 1.80469 9.18652 1.93213 10.0479 2.18701C10.9092 2.43311 11.6431 2.79785 12.2495 3.28125C12.8647 3.76465 13.335 4.3667 13.6602 5.0874C13.9941 5.80811 14.1611 6.64307 14.1611 7.59229C14.1611 8.27783 14.0776 8.89746 13.9106 9.45117C13.7524 9.99609 13.5195 10.4883 13.2119 10.9277C12.9131 11.3584 12.5483 11.7363 12.1177 12.0615C11.6958 12.3867 11.2212 12.668 10.6938 12.9053L14.8203 20.8286V21H10.8521L7.23975 13.8281ZM4.43164 10.8223H7.17383C8.21973 10.8223 9.02393 10.5586 9.58643 10.0312C10.1577 9.49512 10.4434 8.76562 10.4434 7.84277C10.4434 6.88477 10.1665 6.14209 9.61279 5.61475C9.05908 5.07861 8.2417 4.81055 7.16064 4.81055H4.43164V10.8223ZM21.4248 13.96V21H17.7202V1.80469H24.2856C25.3315 1.80469 26.2763 1.9585 27.1201 2.26611C27.9638 2.56494 28.6801 2.98682 29.269 3.53174C29.8667 4.06787 30.3237 4.71387 30.6401 5.46973C30.9653 6.22559 31.1279 7.06494 31.1279 7.98779C31.1279 8.84912 30.9653 9.64453 30.6401 10.374C30.3237 11.1035 29.8667 11.7363 29.269 12.2725C28.6801 12.7998 27.9638 13.2129 27.1201 13.5117C26.2763 13.8105 25.3315 13.96 24.2856 13.96H21.4248ZM21.4248 10.9541H24.2856C24.813 10.9541 25.27 10.875 25.6567 10.7168C26.0434 10.5586 26.3642 10.3433 26.6191 10.0708C26.8828 9.79834 27.0761 9.48633 27.1992 9.13477C27.331 8.77441 27.3969 8.40088 27.3969 8.01416C27.3969 7.56592 27.331 7.14844 27.1992 6.76172C27.0761 6.375 26.8828 6.03662 26.6191 5.74658C26.3642 5.45654 26.0434 5.22803 25.6567 5.06104C25.27 4.89404 24.813 4.81055 24.2856 4.81055H21.4248V10.9541ZM60.3812 13.3667L61.7787 1.80469H65.1801L62.517 21H59.1683L57.349 9.66211L55.5956 21H52.247L49.6102 1.80469H52.9984L54.3695 13.2876L56.0043 1.80469H58.6542L60.3812 13.3667ZM67.3812 13.7358C67.3812 12.6987 67.5306 11.7407 67.8294 10.8618C68.1283 9.97412 68.5633 9.20508 69.1346 8.55469C69.7147 7.9043 70.4178 7.39453 71.244 7.02539C72.0789 6.65625 73.0326 6.47168 74.1048 6.47168C75.1771 6.47168 76.1307 6.65625 76.9657 7.02539C77.8006 7.39453 78.5038 7.9043 79.075 8.55469C79.6551 9.20508 80.0946 9.97412 80.3934 10.8618C80.6922 11.7407 80.8416 12.6987 80.8416 13.7358V14.0127C80.8416 15.0586 80.6922 16.0254 80.3934 16.9131C80.0946 17.792 79.6595 18.5566 79.0882 19.207C78.5169 19.8574 77.8138 20.3672 76.9789 20.7363C76.1439 21.0967 75.1947 21.2769 74.1312 21.2769C73.0589 21.2769 72.1009 21.0967 71.2572 20.7363C70.4222 20.3672 69.7147 19.8574 69.1346 19.207C68.5633 18.5566 68.1283 17.792 67.8294 16.9131C67.5306 16.0254 67.3812 15.0586 67.3812 14.0127V13.7358ZM71.0462 14.0127C71.0462 14.6104 71.1034 15.1729 71.2176 15.7002C71.3319 16.2188 71.5121 16.6758 71.7581 17.0713C72.0042 17.458 72.3206 17.7656 72.7074 17.9941C73.1029 18.2227 73.5775 18.3369 74.1312 18.3369C74.6673 18.3369 75.1288 18.2227 75.5155 17.9941C75.9022 17.7656 76.2142 17.458 76.4515 17.0713C76.6976 16.6758 76.8778 16.2188 76.992 15.7002C77.1063 15.1729 77.1634 14.6104 77.1634 14.0127V13.7358C77.1634 13.1558 77.1063 12.6064 76.992 12.0879C76.8778 11.5693 76.6976 11.1123 76.4515 10.7168C76.2142 10.3213 75.9022 10.0093 75.5155 9.78076C75.1288 9.55225 74.6585 9.43799 74.1048 9.43799C73.5599 9.43799 73.0941 9.55225 72.7074 9.78076C72.3206 10.0093 72.0042 10.3213 71.7581 10.7168C71.5121 11.1123 71.3319 11.5693 71.2176 12.0879C71.1034 12.6064 71.0462 13.1558 71.0462 13.7358V14.0127ZM94.8816 6.47168C95.4353 6.47168 95.9451 6.51123 96.4109 6.59033C96.8855 6.66064 97.2679 6.73975 97.5579 6.82764L97.0174 10.4795C96.534 10.3652 96.0374 10.2817 95.5276 10.229C95.0267 10.1675 94.5477 10.1367 94.0906 10.1367C93.0623 10.1367 92.2361 10.3345 91.6121 10.73C90.9969 11.1255 90.5354 11.6924 90.2278 12.4307V21H86.5628V6.73535H89.9773L90.1487 9.06885C90.7288 8.26025 91.4231 7.62744 92.2317 7.17041C93.0403 6.70459 93.9236 6.47168 94.8816 6.47168ZM102.158 0.75H110.135V18.0205H114.221V21H102.158V18.0205H106.43V3.74268H102.158V0.75ZM117.767 13.7622C117.767 12.6812 117.89 11.6924 118.136 10.7959C118.391 9.89941 118.76 9.13037 119.244 8.48877C119.727 7.84717 120.312 7.35059 120.997 6.99902C121.692 6.64746 122.483 6.47168 123.37 6.47168C124.117 6.47168 124.772 6.60791 125.335 6.88037C125.906 7.14404 126.411 7.52197 126.851 8.01416V0.75H130.529V21H127.22L127.035 19.5103C126.587 20.064 126.06 20.4946 125.453 20.8022C124.847 21.1099 124.144 21.2637 123.344 21.2637C122.474 21.2637 121.692 21.0835 120.997 20.7231C120.312 20.354 119.727 19.8486 119.244 19.207C118.769 18.5654 118.405 17.8052 118.15 16.9263C117.895 16.0386 117.767 15.0762 117.767 14.0391V13.7622ZM121.432 14.0391C121.432 14.6367 121.481 15.1948 121.577 15.7134C121.683 16.2231 121.85 16.6714 122.078 17.0581C122.307 17.436 122.601 17.7349 122.962 17.9546C123.322 18.1743 123.761 18.2842 124.28 18.2842C124.913 18.2842 125.436 18.1479 125.849 17.8755C126.271 17.603 126.605 17.2295 126.851 16.7549V10.9805C126.605 10.4971 126.275 10.1235 125.862 9.85986C125.449 9.5874 124.93 9.45117 124.306 9.45117C123.788 9.45117 123.344 9.56543 122.975 9.79395C122.614 10.0137 122.32 10.3213 122.092 10.7168C121.863 11.1035 121.696 11.5605 121.591 12.0879C121.485 12.6064 121.432 13.1646 121.432 13.7622V14.0391Z" fill="white"/>
</svg>
